<svg xmlns="http://www.w3.org/2000/svg" xmlns:xlink="http://www.w3.org/1999/xlink" viewBox="0 0 171.6 171.6"><defs><style>.cls-1{fill:#faa;stroke:#d40000;stroke-width:3.71px;}.cls-2{fill:url(#radial-gradient);}.cls-3{fill:url(#linear-gradient);}.cls-4{opacity:0.75;isolation:isolate;fill:url(#linear-gradient-2);}.cls-5{stroke:#000;stroke-miterlimit:10;stroke-width:5.35px;opacity:0.13;}.cls-6{font-size:139.05px;fill:#fff;font-family:Wingdings2, "Wingdings 2";}</style><radialGradient id="radial-gradient" cx="258.95" cy="486.83" r="83.13" gradientTransform="translate(-173.15 -401.03)" gradientUnits="userSpaceOnUse"><stop offset="0" stop-color="#d50000"/><stop offset="1" stop-color="#d50000" stop-opacity="0"/></radialGradient><linearGradient id="linear-gradient" x1="259.75" y1="330.27" x2="258.72" y2="442.58" gradientTransform="translate(-173.15 -309.57) scale(1 0.95)" gradientUnits="userSpaceOnUse"><stop offset="0" stop-color="maroon"/><stop offset="1" stop-color="maroon" stop-opacity="0"/></linearGradient><linearGradient id="linear-gradient-2" x1="507.42" y1="-388.34" x2="511.22" y2="-554.84" gradientTransform="translate(-328.58 387.91) scale(0.81 0.57)" gradientUnits="userSpaceOnUse"><stop offset="0" stop-color="#ffd5d5"/><stop offset="1" stop-color="#ffd5d5" stop-opacity="0"/></linearGradient></defs><g id="Layer_2" data-name="Layer 2"><g id="Layer_1-2" data-name="Layer 1"><g id="button_close_pressed"><g id="layer2"><g id="g3037"><path id="path3815" class="cls-1" d="M168.92,85.8A83.13,83.13,0,1,0,85.8,168.93,83.12,83.12,0,0,0,168.92,85.8Z"/><path id="path3817" class="cls-2" d="M168.92,85.8A83.13,83.13,0,1,0,85.8,168.93,83.12,83.12,0,0,0,168.92,85.8Z"/><path id="path3827" class="cls-3" d="M168.92,85.8A83.13,83.13,0,1,0,85.8,168.93,83.12,83.12,0,0,0,168.92,85.8Z"/><path id="path3839" class="cls-4" d="M153.43,119.87c0-27.66-30.28-50.08-67.63-50.08S18.16,92.21,18.16,119.87,48.44,170,85.8,170s67.63-22.42,67.63-50.08Z"/><path id="path3815-2" data-name="path3815" class="cls-5" d="M168.92,85.8A83.13,83.13,0,1,0,85.8,168.93,83.12,83.12,0,0,0,168.92,85.8Z"/></g></g><text class="cls-6" transform="translate(23.84 135.28)">Ñ</text></g></g></g></svg>