<svg xmlns="http://www.w3.org/2000/svg" xmlns:xlink="http://www.w3.org/1999/xlink" viewBox="0 0 169.96 169.97"><defs><style>.cls-1{fill:#faa;stroke:#d40000;stroke-width:3.71px;}.cls-2{fill:url(#radial-gradient);}.cls-3{fill:url(#linear-gradient);}.cls-4{opacity:0.75;isolation:isolate;fill:url(#linear-gradient-2);}.cls-5{font-size:139.05px;fill:#fff;font-family:Wingdings2, "Wingdings 2";}</style><radialGradient id="radial-gradient" cx="258.14" cy="3088.5" r="83.13" gradientTransform="matrix(1, 0, 0, -1, -173.15, 3173.49)" gradientUnits="userSpaceOnUse"><stop offset="0" stop-color="#d50000"/><stop offset="1" stop-color="#d50000" stop-opacity="0"/></radialGradient><linearGradient id="linear-gradient" x1="258.94" y1="3077.49" x2="257.9" y2="3189.79" gradientTransform="matrix(1, 0, 0, -0.95, -173.15, 3082.13)" gradientUnits="userSpaceOnUse"><stop offset="0" stop-color="maroon"/><stop offset="1" stop-color="maroon" stop-opacity="0"/></linearGradient><linearGradient id="linear-gradient-2" x1="506.6" y1="4172.67" x2="510.4" y2="4006.17" gradientTransform="matrix(0.81, 0, 0, -0.57, -328.73, 2385.34)" gradientUnits="userSpaceOnUse"><stop offset="0" stop-color="#ffd5d5"/><stop offset="1" stop-color="#ffd5d5" stop-opacity="0"/></linearGradient></defs><g id="Layer_2" data-name="Layer 2"><g id="Layer_1-2" data-name="Layer 1"><g id="button_close"><g id="layer2"><g id="g3037"><path id="path3815" class="cls-1" d="M168.11,85A83.13,83.13,0,1,1,85,1.86,83.13,83.13,0,0,1,168.11,85Z"/><path id="path3817" class="cls-2" d="M168.11,85A83.13,83.13,0,1,1,85,1.86,83.13,83.13,0,0,1,168.11,85Z"/><path id="path3827" class="cls-3" d="M168.11,85A83.13,83.13,0,1,1,85,1.86,83.13,83.13,0,0,1,168.11,85Z"/><path id="path3839" class="cls-4" d="M152.62,50.91C152.62,78.57,122.34,101,85,101S17.35,78.57,17.35,50.91,47.63.83,85,.83s67.64,22.42,67.64,50.08Z"/></g></g><text class="cls-5" transform="translate(23.03 133.43)">Ñ</text></g></g></g></svg>